<svg width="2920" height="575" xmlns="http://www.w3.org/2000/svg" xmlns:xlink="http://www.w3.org/1999/xlink" xmlns:svgjs="http://svgjs.com/svgjs" viewBox="90 241 2920 575"><svg width="1920" height="551" xmlns="http://www.w3.org/2000/svg" xmlns:xlink="http://www.w3.org/1999/xlink" xmlns:svgjs="http://svgjs.com/svgjs" viewBox="0 0.5 1920 550" fill="#fcc825" opacity=".302" x="90" y="241"><svg xmlns="http://www.w3.org/2000/svg" xmlns:xlink="http://www.w3.org/1999/xlink" width="1920" height="551" viewBox="0 1 1920 550"><path paint-order="stroke fill markers" fill-rule="evenodd" d="M1920 248.5C1837.932 171.184 1708.76 1 1485 1c-262 0-384.5 324.187-713 324.187-328.667 0-401.634-231.39-772-231.39V551h1920V248.5z"/></svg></svg><svg width="1921" height="481" xmlns="http://www.w3.org/2000/svg" xmlns:xlink="http://www.w3.org/1999/xlink" xmlns:svgjs="http://svgjs.com/svgjs" viewBox="0 0.375 1921 480.25" fill="#fcc825" opacity=".302" x="1089" y="335"><svg xmlns="http://www.w3.org/2000/svg" width="1921" height="481" viewBox="1 0.999 1920 480"><path paint-order="stroke fill markers" fill-rule="evenodd" d="M1921 217c-82.068-67.475-211.24-216-435-216-262 0-384.5 282.926-713 282.926-328.667 0-401.634-201.94-772-201.94v399.013h1920V217z"/></svg></svg></svg>