<svg width="16" height="17" xmlns="http://www.w3.org/2000/svg" xmlns:xlink="http://www.w3.org/1999/xlink" xmlns:svgjs="http://svgjs.com/svgjs" viewBox="1000 7413 16 17"><svg width="16" height="17" xmlns="http://www.w3.org/2000/svg" xmlns:xlink="http://www.w3.org/1999/xlink" xmlns:svgjs="http://svgjs.com/svgjs" viewBox="1000 7413 16 17" x="1000" y="7413"><svg width="16" height="16" xmlns="http://www.w3.org/2000/svg" xmlns:xlink="http://www.w3.org/1999/xlink" xmlns:svgjs="http://svgjs.com/svgjs" fill="#7fb5ff" x="1000" y="7413"><svg xmlns="http://www.w3.org/2000/svg" xmlns:xlink="http://www.w3.org/1999/xlink" width="16" height="16" viewBox="0 -0.001 16 16"><path paint-order="stroke fill markers" fill-rule="evenodd" d="M8 16c-4.424 0-8-3.576-8-8 0-4.424 3.576-8 8-8 4.424 0 8 3.576 8 8 0 4.424-3.576 8-8 8z"/></svg></svg><svg width="8" height="13" xmlns="http://www.w3.org/2000/svg" xmlns:xlink="http://www.w3.org/1999/xlink" xmlns:svgjs="http://svgjs.com/svgjs" viewBox="1006 7417 8 13" x="1006" y="7417"><svg width="8" height="13" xmlns="http://www.w3.org/2000/svg" xmlns:xlink="http://www.w3.org/1999/xlink" xmlns:svgjs="http://svgjs.com/svgjs" viewBox="0 0.24 8 12.521" fill="#fff" x="1006" y="7417"><svg xmlns="http://www.w3.org/2000/svg" width="8" height="13" viewBox="0.39 0.936 7.36 11.519"><path paint-order="stroke fill markers" fill-rule="evenodd" d="M4.054 8.871a.736.736 0 0 0 .488-.168.813.813 0 0 0 .264-.472 1.8 1.8 0 0 1 .384-.84c.203-.25.507-.562.912-.936.363-.352.65-.648.864-.888.213-.24.398-.522.553-.848.154-.325.232-.685.232-1.08 0-.512-.147-.973-.44-1.384-.294-.41-.705-.733-1.233-.968-.527-.234-1.122-.351-1.783-.351-.62 0-1.235.103-1.849.311a5.328 5.328 0 0 0-1.624.872c-.149.117-.258.243-.327.376-.07.134-.105.296-.105.489 0 .277.078.514.232.711.155.198.344.297.568.297.203 0 .459-.086.768-.256.49-.288.883-.502 1.177-.64.293-.14.61-.209.951-.209.374 0 .67.088.889.264a.867.867 0 0 1 .327.712c0 .278-.066.526-.2.744a6.45 6.45 0 0 1-.631.824c-.385.438-.675.837-.873 1.2-.197.363-.296.816-.296 1.36 0 .267.067.48.2.64a.68.68 0 0 0 .552.24zm.032 3.584c.385 0 .705-.13.96-.392.256-.261.384-.589.384-.983 0-.395-.128-.723-.384-.985a1.29 1.29 0 0 0-.96-.392c-.394 0-.72.131-.976.392-.256.262-.384.59-.384.985 0 .394.128.722.384.983.257.262.582.392.976.392z"/></svg></svg></svg></svg></svg>