<svg width="16" height="17" xmlns="http://www.w3.org/2000/svg" xmlns:xlink="http://www.w3.org/1999/xlink" xmlns:svgjs="http://svgjs.com/svgjs" viewBox="220 7601 16 17"><svg width="16" height="17" xmlns="http://www.w3.org/2000/svg" xmlns:xlink="http://www.w3.org/1999/xlink" xmlns:svgjs="http://svgjs.com/svgjs" viewBox="220 7601 16 17" x="220" y="7601"><svg width="16" height="17" xmlns="http://www.w3.org/2000/svg" xmlns:xlink="http://www.w3.org/1999/xlink" xmlns:svgjs="http://svgjs.com/svgjs" viewBox="220 7601 16 17" x="220" y="7601"><svg width="16" height="16" xmlns="http://www.w3.org/2000/svg" xmlns:xlink="http://www.w3.org/1999/xlink" xmlns:svgjs="http://svgjs.com/svgjs" fill="#38e0c4" x="220" y="7601"><svg xmlns="http://www.w3.org/2000/svg" xmlns:xlink="http://www.w3.org/1999/xlink" width="16" height="16"><path paint-order="stroke fill markers" fill-rule="evenodd" d="M8 16c-4.424 0-8-3.576-8-8 0-4.424 3.576-8 8-8 4.424 0 8 3.576 8 8 0 4.424-3.576 8-8 8z"/></svg></svg><svg width="8" height="13" xmlns="http://www.w3.org/2000/svg" xmlns:xlink="http://www.w3.org/1999/xlink" xmlns:svgjs="http://svgjs.com/svgjs" viewBox="226 7605 8 13" x="226" y="7605"><svg width="8" height="13" xmlns="http://www.w3.org/2000/svg" xmlns:xlink="http://www.w3.org/1999/xlink" xmlns:svgjs="http://svgjs.com/svgjs" viewBox="0 0.239 8 12.522" fill="#fff" x="226" y="7605"><svg xmlns="http://www.w3.org/2000/svg" width="8" height="13" viewBox="0.39 0.935 7.36 11.52"><path paint-order="stroke fill markers" fill-rule="evenodd" d="M4.054 8.871a.735.735 0 0 0 .488-.168.813.813 0 0 0 .264-.471 1.8 1.8 0 0 1 .384-.84c.203-.251.507-.563.912-.937.363-.352.651-.648.864-.888.214-.24.398-.522.553-.848.154-.325.231-.685.231-1.08 0-.512-.146-.973-.44-1.384-.293-.41-.704-.733-1.231-.968C5.55 1.053 4.956.935 4.294.935c-.618 0-1.234.104-1.848.312a5.325 5.325 0 0 0-1.624.872c-.149.118-.258.243-.328.376-.07.134-.104.296-.104.488 0 .278.078.515.233.712.154.198.343.297.567.297.203 0 .459-.086.768-.256.49-.288.883-.502 1.177-.64.293-.14.61-.209.951-.209.374 0 .67.088.888.264a.867.867 0 0 1 .328.712c0 .278-.066.526-.2.744a6.48 6.48 0 0 1-.631.824c-.385.438-.675.837-.873 1.2-.197.363-.296.816-.296 1.36 0 .267.067.48.2.64.134.16.318.24.552.24zm.032 3.584c.385 0 .704-.13.96-.392.256-.261.384-.589.384-.983 0-.395-.128-.723-.384-.985a1.29 1.29 0 0 0-.96-.392c-.394 0-.72.131-.976.392-.256.262-.383.59-.383.985 0 .394.127.722.383.983.256.262.582.392.976.392z"/></svg></svg></svg></svg></svg></svg>