<svg width="16" height="17" xmlns="http://www.w3.org/2000/svg" xmlns:xlink="http://www.w3.org/1999/xlink" xmlns:svgjs="http://svgjs.com/svgjs" viewBox="220 7808 16 17"><svg width="16" height="17" xmlns="http://www.w3.org/2000/svg" xmlns:xlink="http://www.w3.org/1999/xlink" xmlns:svgjs="http://svgjs.com/svgjs" viewBox="220 7808 16 17" x="220" y="7808"><svg width="16" height="16" xmlns="http://www.w3.org/2000/svg" xmlns:xlink="http://www.w3.org/1999/xlink" xmlns:svgjs="http://svgjs.com/svgjs" fill="#fa5fac" x="220" y="7808"><svg xmlns="http://www.w3.org/2000/svg" xmlns:xlink="http://www.w3.org/1999/xlink" width="16" height="16"><path paint-order="stroke fill markers" fill-rule="evenodd" d="M8 16c-4.424 0-8-3.576-8-8 0-4.424 3.576-8 8-8 4.424 0 8 3.576 8 8 0 4.424-3.576 8-8 8z"/></svg></svg><svg width="8" height="13" xmlns="http://www.w3.org/2000/svg" xmlns:xlink="http://www.w3.org/1999/xlink" xmlns:svgjs="http://svgjs.com/svgjs" viewBox="226 7812 8 13" x="226" y="7812"><svg width="8" height="13" xmlns="http://www.w3.org/2000/svg" xmlns:xlink="http://www.w3.org/1999/xlink" xmlns:svgjs="http://svgjs.com/svgjs" viewBox="0 0.239 8 12.522" fill="#fff" x="226" y="7812"><svg xmlns="http://www.w3.org/2000/svg" width="8" height="13" viewBox="0.39 0.935 7.36 11.52"><path paint-order="stroke fill markers" fill-rule="evenodd" d="M4.054 8.871a.739.739 0 0 0 .488-.167.815.815 0 0 0 .264-.473c.054-.309.182-.59.384-.84.203-.25.507-.562.912-.936.363-.352.65-.648.864-.887a3.6 3.6 0 0 0 .553-.849c.154-.325.232-.684.232-1.08 0-.512-.147-.973-.44-1.384-.294-.41-.705-.733-1.232-.968C5.55 1.052 4.956.935 4.295.935c-.62 0-1.235.104-1.849.313a5.314 5.314 0 0 0-1.624.871c-.149.118-.258.243-.327.376-.07.134-.105.296-.105.488 0 .278.078.515.232.712.155.198.344.296.568.296.203 0 .459-.085.768-.255.49-.289.883-.502 1.177-.64.293-.14.61-.208.951-.208.374 0 .67.087.889.263a.867.867 0 0 1 .327.712c0 .278-.066.526-.2.744a6.45 6.45 0 0 1-.631.824c-.385.438-.675.838-.873 1.2-.197.363-.296.816-.296 1.36 0 .267.067.48.2.64.134.16.318.24.552.24zm.032 3.584c.385 0 .705-.13.96-.392.256-.26.384-.589.384-.984 0-.394-.128-.722-.384-.983a1.288 1.288 0 0 0-.96-.393c-.394 0-.72.131-.976.393-.256.261-.384.589-.384.983 0 .395.128.723.384.984.256.262.582.392.976.392z"/></svg></svg></svg></svg></svg>