<svg width="16" height="17" xmlns="http://www.w3.org/2000/svg" xmlns:xlink="http://www.w3.org/1999/xlink" xmlns:svgjs="http://svgjs.com/svgjs" viewBox="220 7413 16 17"><svg width="16" height="17" xmlns="http://www.w3.org/2000/svg" xmlns:xlink="http://www.w3.org/1999/xlink" xmlns:svgjs="http://svgjs.com/svgjs" viewBox="220 7413 16 17" x="220" y="7413"><svg width="16" height="16" xmlns="http://www.w3.org/2000/svg" xmlns:xlink="http://www.w3.org/1999/xlink" xmlns:svgjs="http://svgjs.com/svgjs" fill="#a485f2" x="220" y="7413"><svg xmlns="http://www.w3.org/2000/svg" xmlns:xlink="http://www.w3.org/1999/xlink" width="16" height="16" viewBox="0 -0.001 16 16"><path paint-order="stroke fill markers" fill-rule="evenodd" d="M8 16c-4.424 0-8-3.576-8-8 0-4.424 3.576-8 8-8 4.424 0 8 3.576 8 8 0 4.424-3.576 8-8 8z"/></svg></svg><svg width="8" height="13" xmlns="http://www.w3.org/2000/svg" xmlns:xlink="http://www.w3.org/1999/xlink" xmlns:svgjs="http://svgjs.com/svgjs" viewBox="226 7417 8 13" x="226" y="7417"><svg width="8" height="13" xmlns="http://www.w3.org/2000/svg" xmlns:xlink="http://www.w3.org/1999/xlink" xmlns:svgjs="http://svgjs.com/svgjs" viewBox="0 0.239 8 12.521" fill="#fff" x="226" y="7417"><svg xmlns="http://www.w3.org/2000/svg" width="8" height="13" viewBox="0.39 0.936 7.36 11.519"><path paint-order="stroke fill markers" fill-rule="evenodd" d="M4.054 8.871a.735.735 0 0 0 .488-.168.813.813 0 0 0 .264-.472 1.8 1.8 0 0 1 .385-.84c.202-.25.506-.562.911-.936.363-.352.65-.648.864-.888.214-.24.398-.522.552-.848.155-.325.232-.685.232-1.08 0-.512-.146-.973-.44-1.384-.293-.41-.704-.733-1.232-.968-.527-.234-1.122-.351-1.784-.351a5.72 5.72 0 0 0-1.848.311 5.328 5.328 0 0 0-1.624.872 1.17 1.17 0 0 0-.327.376c-.07.134-.105.296-.105.489 0 .277.078.514.233.711.154.198.343.297.567.297.203 0 .46-.086.768-.256.49-.288.883-.502 1.176-.64.294-.14.61-.209.952-.209.374 0 .67.088.888.264a.866.866 0 0 1 .328.712c0 .278-.066.526-.2.744a6.486 6.486 0 0 1-.632.824c-.384.438-.674.837-.872 1.2-.197.363-.296.816-.296 1.36 0 .267.067.48.2.64.134.16.318.24.552.24zm.032 3.584c.384 0 .705-.13.96-.392.256-.261.384-.589.384-.983 0-.395-.128-.723-.384-.985a1.29 1.29 0 0 0-.96-.392c-.394 0-.72.131-.976.392-.256.262-.384.59-.384.985 0 .394.128.722.384.983.256.262.582.392.976.392z"/></svg></svg></svg></svg></svg>