<svg width="16" height="17" xmlns="http://www.w3.org/2000/svg" xmlns:xlink="http://www.w3.org/1999/xlink" xmlns:svgjs="http://svgjs.com/svgjs" viewBox="1002 7601 16 17"><svg width="16" height="17" xmlns="http://www.w3.org/2000/svg" xmlns:xlink="http://www.w3.org/1999/xlink" xmlns:svgjs="http://svgjs.com/svgjs" viewBox="1002 7601 16 17" x="1002" y="7601"><svg width="16" height="16" xmlns="http://www.w3.org/2000/svg" xmlns:xlink="http://www.w3.org/1999/xlink" xmlns:svgjs="http://svgjs.com/svgjs" fill="#ff5c72" x="1002" y="7601"><svg xmlns="http://www.w3.org/2000/svg" xmlns:xlink="http://www.w3.org/1999/xlink" width="16" height="16"><path paint-order="stroke fill markers" fill-rule="evenodd" d="M8 16c-4.424 0-8-3.576-8-8 0-4.424 3.576-8 8-8 4.424 0 8 3.576 8 8 0 4.424-3.576 8-8 8z"/></svg></svg><svg width="8" height="13" xmlns="http://www.w3.org/2000/svg" xmlns:xlink="http://www.w3.org/1999/xlink" xmlns:svgjs="http://svgjs.com/svgjs" viewBox="1008 7605 8 13" x="1008" y="7605"><svg width="8" height="13" xmlns="http://www.w3.org/2000/svg" xmlns:xlink="http://www.w3.org/1999/xlink" xmlns:svgjs="http://svgjs.com/svgjs" viewBox="0 0.239 8 12.522" fill="#fff" x="1008" y="7605"><svg xmlns="http://www.w3.org/2000/svg" width="8" height="13" viewBox="0.39 0.935 7.36 11.52"><path paint-order="stroke fill markers" fill-rule="evenodd" d="M4.055 8.871a.735.735 0 0 0 .487-.168.812.812 0 0 0 .264-.471c.054-.31.182-.59.384-.84.203-.251.507-.563.913-.937.362-.352.65-.648.863-.888.214-.24.398-.522.552-.848.155-.325.232-.685.232-1.08 0-.512-.146-.973-.44-1.384-.293-.41-.704-.733-1.232-.968C5.55 1.053 4.956.935 4.294.935a5.72 5.72 0 0 0-1.848.312 5.33 5.33 0 0 0-1.624.872c-.15.118-.258.243-.328.376-.069.134-.104.296-.104.488 0 .278.078.515.232.712.155.198.345.297.569.297.202 0 .458-.086.767-.256.491-.288.883-.502 1.176-.64.294-.14.611-.209.953-.209.373 0 .669.088.887.264a.867.867 0 0 1 .328.712 1.4 1.4 0 0 1-.2.744 6.456 6.456 0 0 1-.632.824c-.383.438-.674.837-.872 1.2-.197.363-.296.816-.296 1.36 0 .267.067.48.2.64.134.16.318.24.553.24zm.032 3.584c.383 0 .703-.13.96-.392a1.35 1.35 0 0 0 .384-.983c0-.395-.129-.723-.385-.985a1.29 1.29 0 0 0-.96-.392c-.394 0-.72.131-.976.392-.256.262-.384.59-.384.985 0 .394.128.722.384.983.256.262.582.392.977.392z"/></svg></svg></svg></svg></svg>