<svg width="16" height="17" xmlns="http://www.w3.org/2000/svg" xmlns:xlink="http://www.w3.org/1999/xlink" xmlns:svgjs="http://svgjs.com/svgjs" viewBox="1000 7808 16 17"><svg width="16" height="17" xmlns="http://www.w3.org/2000/svg" xmlns:xlink="http://www.w3.org/1999/xlink" xmlns:svgjs="http://svgjs.com/svgjs" viewBox="1000 7808 16 17" x="1000" y="7808"><svg width="16" height="16" xmlns="http://www.w3.org/2000/svg" xmlns:xlink="http://www.w3.org/1999/xlink" xmlns:svgjs="http://svgjs.com/svgjs" fill="#f0d948" x="1000" y="7808"><svg xmlns="http://www.w3.org/2000/svg" xmlns:xlink="http://www.w3.org/1999/xlink" width="16" height="16"><path paint-order="stroke fill markers" fill-rule="evenodd" d="M8 16c-4.424 0-8-3.576-8-8 0-4.424 3.576-8 8-8 4.424 0 8 3.576 8 8 0 4.424-3.576 8-8 8z"/></svg></svg><svg width="8" height="13" xmlns="http://www.w3.org/2000/svg" xmlns:xlink="http://www.w3.org/1999/xlink" xmlns:svgjs="http://svgjs.com/svgjs" viewBox="1006 7812 8 13" x="1006" y="7812"><svg width="8" height="13" xmlns="http://www.w3.org/2000/svg" xmlns:xlink="http://www.w3.org/1999/xlink" xmlns:svgjs="http://svgjs.com/svgjs" viewBox="0 0.239 8 12.522" fill="#fff" x="1006" y="7812"><svg xmlns="http://www.w3.org/2000/svg" width="8" height="13" viewBox="0.39 0.935 7.36 11.52"><path paint-order="stroke fill markers" fill-rule="evenodd" d="M4.054 8.871a.739.739 0 0 0 .488-.167.815.815 0 0 0 .264-.473 1.8 1.8 0 0 1 .385-.84c.202-.25.506-.562.911-.936.363-.352.65-.648.864-.887.214-.241.398-.523.552-.849a2.48 2.48 0 0 0 .232-1.08c0-.512-.146-.973-.44-1.384-.293-.41-.704-.733-1.232-.968-.527-.235-1.122-.352-1.784-.352-.618 0-1.234.104-1.848.313a5.314 5.314 0 0 0-1.624.871c-.15.118-.258.243-.327.376-.07.134-.105.296-.105.488 0 .278.078.515.233.712.154.198.343.296.567.296.203 0 .459-.085.768-.255.49-.289.883-.502 1.176-.64.294-.14.61-.208.952-.208.374 0 .67.087.888.263a.866.866 0 0 1 .328.712 1.4 1.4 0 0 1-.2.744 6.486 6.486 0 0 1-.632.824c-.384.438-.674.838-.872 1.2-.197.363-.296.816-.296 1.36 0 .267.067.48.2.64.134.16.318.24.552.24zm.032 3.584c.384 0 .705-.13.96-.392.256-.26.384-.589.384-.984 0-.394-.128-.722-.384-.983a1.289 1.289 0 0 0-.96-.393c-.394 0-.72.131-.976.393-.256.261-.384.589-.384.983 0 .395.128.723.384.984.256.262.582.392.976.392z"/></svg></svg></svg></svg></svg>